<svg width="32" height="32" viewBox="0 0 32 32" fill="none" xmlns="http://www.w3.org/2000/svg">
<path d="M16.8878 7.192V25H13.3118V23.512C12.3838 24.632 11.0398 25.192 9.27981 25.192C8.06381 25.192 6.95981 24.92 5.96781 24.376C4.99181 23.832 4.22381 23.056 3.66381 22.048C3.10381 21.04 2.82381 19.872 2.82381 18.544C2.82381 17.216 3.10381 16.048 3.66381 15.04C4.22381 14.032 4.99181 13.256 5.96781 12.712C6.95981 12.168 8.06381 11.896 9.27981 11.896C10.9278 11.896 12.2158 12.416 13.1438 13.456V7.192H16.8878ZM9.92781 22.12C10.8718 22.12 11.6558 21.8 12.2798 21.16C12.9038 20.504 13.2158 19.632 13.2158 18.544C13.2158 17.456 12.9038 16.592 12.2798 15.952C11.6558 15.296 10.8718 14.968 9.92781 14.968C8.96781 14.968 8.17581 15.296 7.55181 15.952C6.92781 16.592 6.61581 17.456 6.61581 18.544C6.61581 19.632 6.92781 20.504 7.55181 21.16C8.17581 21.8 8.96781 22.12 9.92781 22.12ZM29.6185 24.376C29.2505 24.648 28.7945 24.856 28.2505 25C27.7225 25.128 27.1625 25.192 26.5705 25.192C25.0345 25.192 23.8425 24.8 22.9945 24.016C22.1625 23.232 21.7465 22.08 21.7465 20.56V15.256H19.7545V12.376H21.7465V9.232H25.4905V12.376H28.7065V15.256H25.4905V20.512C25.4905 21.056 25.6265 21.48 25.8985 21.784C26.1865 22.072 26.5865 22.216 27.0985 22.216C27.6905 22.216 28.1945 22.056 28.6105 21.736L29.6185 24.376Z" fill="black"/>
</svg>
