<svg width="16" height="15" viewBox="0 0 16 15" fill="none" xmlns="http://www.w3.org/2000/svg">
<path d="M7.94295 3.65337C5.68948 3.65337 3.87182 5.37005 3.87182 7.49833C3.87182 9.6266 5.68948 11.3433 7.94295 11.3433C10.1964 11.3433 12.0141 9.6266 12.0141 7.49833C12.0141 5.37005 10.1964 3.65337 7.94295 3.65337ZM7.94295 9.99805C6.4867 9.99805 5.29618 8.87702 5.29618 7.49833C5.29618 6.11963 6.48315 4.99861 7.94295 4.99861C9.40274 4.99861 10.5897 6.11963 10.5897 7.49833C10.5897 8.87702 9.3992 9.99805 7.94295 9.99805ZM13.1302 3.4961C13.1302 3.9947 12.705 4.39292 12.1806 4.39292C11.6527 4.39292 11.231 3.99136 11.231 3.4961C11.231 3.00084 11.6562 2.59927 12.1806 2.59927C12.705 2.59927 13.1302 3.00084 13.1302 3.4961ZM15.8265 4.4063C15.7663 3.20496 15.4758 2.14083 14.5439 1.26408C13.6156 0.38734 12.4889 0.112939 11.2169 0.052705C9.90588 -0.0175683 5.97648 -0.0175683 4.6655 0.052705C3.39703 0.109593 2.2703 0.383993 1.33844 1.26074C0.406581 2.13748 0.119583 3.20162 0.0558053 4.40296C-0.0186018 5.6411 -0.0186018 9.3522 0.0558053 10.5904C0.116039 11.7917 0.406581 12.8558 1.33844 13.7326C2.2703 14.6093 3.39349 14.8837 4.6655 14.9439C5.97648 15.0142 9.90588 15.0142 11.2169 14.9439C12.4889 14.8871 13.6156 14.6127 14.5439 13.7326C15.4722 12.8558 15.7628 11.7917 15.8265 10.5904C15.901 9.3522 15.901 5.64445 15.8265 4.4063ZM14.1329 11.9189C13.8565 12.5747 13.3215 13.08 12.6235 13.3444C11.5783 13.7359 9.09803 13.6456 7.94295 13.6456C6.78787 13.6456 4.30409 13.7326 3.26239 13.3444C2.56793 13.0834 2.03291 12.5781 1.75299 11.9189C1.33844 10.9317 1.43411 8.58924 1.43411 7.49833C1.43411 6.40742 1.34198 4.06163 1.75299 3.0778C2.02936 2.42192 2.56438 1.91662 3.26239 1.65226C4.30763 1.26074 6.78787 1.35109 7.94295 1.35109C9.09803 1.35109 11.5818 1.26408 12.6235 1.65226C13.318 1.91327 13.853 2.41857 14.1329 3.0778C14.5475 4.06498 14.4518 6.40742 14.4518 7.49833C14.4518 8.58924 14.5475 10.935 14.1329 11.9189Z" fill="black" fill-opacity="0.5"/>
</svg>
