<svg width="20" height="11" viewBox="0 0 20 11" fill="none" xmlns="http://www.w3.org/2000/svg">
<path d="M19.0027 0.739834C19.1362 0.313662 19.0027 0 18.3601 0H16.2338C15.6924 0 15.4433 0.26934 15.3097 0.569366C15.3097 0.569366 14.2267 3.06162 12.6961 4.67766C12.2016 5.14475 11.9741 5.29476 11.7034 5.29476C11.5698 5.29476 11.364 5.14475 11.364 4.71858V0.739834C11.364 0.228428 11.2124 0 10.7648 0H7.42201C7.08268 0 6.88052 0.238656 6.88052 0.460266C6.88052 0.944397 7.64582 1.05691 7.72524 2.42066V5.37999C7.72524 6.02777 7.6025 6.1471 7.33176 6.1471C6.60978 6.1471 4.85535 3.64462 3.81569 0.780747C3.60632 0.225019 3.40055 0 2.85545 0H0.729205C0.122737 0 0 0.26934 0 0.569366C0 1.10123 0.721985 3.74349 3.36084 7.23469C5.11888 9.61785 7.59528 10.91 9.84788 10.91C11.2016 10.91 11.3677 10.6236 11.3677 10.1293C11.3677 7.85179 11.2449 7.637 11.9236 7.637C12.2376 7.637 12.7791 7.78701 14.0426 8.93597C15.4866 10.2997 15.7248 10.91 16.5335 10.91H18.6597C19.2662 10.91 19.573 10.6236 19.3961 10.0577C18.9918 8.86778 16.2591 6.41985 16.1364 6.2562C15.8223 5.87435 15.9126 5.70388 16.1364 5.36295C16.14 5.35954 18.7355 1.90925 19.0027 0.739834Z" fill="black" fill-opacity="0.5"/>
</svg>
