<svg width="16" height="15" viewBox="0 0 16 15" fill="none" xmlns="http://www.w3.org/2000/svg">
<path d="M13.5035 2.17969C12.0181 0.773437 10.0399 0 7.93763 0C3.59835 0 0.0673582 3.33482 0.0673582 7.43304C0.0673582 8.74219 0.428965 10.0212 1.11673 11.1496L0 15L4.17266 13.9654C5.3213 14.558 6.61528 14.8694 7.93409 14.8694H7.93763C12.2734 14.8694 15.8824 11.5346 15.8824 7.43638C15.8824 5.45089 14.989 3.58594 13.5035 2.17969V2.17969ZM7.93763 13.6172C6.76064 13.6172 5.60846 13.3192 4.60517 12.7567L4.36765 12.6228L1.89312 13.2355L2.55252 10.9554L2.39653 10.721C1.74068 9.73661 1.3968 8.60156 1.3968 7.43304C1.3968 4.0279 4.3322 1.25558 7.94118 1.25558C9.68894 1.25558 11.3304 1.89844 12.5641 3.06696C13.7978 4.23549 14.5565 5.78571 14.5529 7.43638C14.5529 10.8449 11.5431 13.6172 7.93763 13.6172V13.6172ZM11.5253 8.98996C11.3304 8.89621 10.3625 8.44754 10.1817 8.38728C10.0009 8.32366 9.86975 8.29353 9.73858 8.48103C9.60741 8.66853 9.23162 9.08371 9.11463 9.21094C9.00118 9.33482 8.88419 9.35156 8.68921 9.25781C7.53348 8.71205 6.77482 8.28348 6.01261 7.04799C5.81053 6.71987 6.21468 6.7433 6.59047 6.03348C6.65428 5.9096 6.62237 5.80246 6.57274 5.70871C6.52311 5.61496 6.1296 4.70089 5.96652 4.32924C5.80699 3.96763 5.64391 4.01786 5.52337 4.01116C5.40993 4.00446 5.27876 4.00446 5.14758 4.00446C5.01641 4.00446 4.8037 4.05134 4.6229 4.23549C4.4421 4.42299 3.93514 4.87165 3.93514 5.78571C3.93514 6.69978 4.64063 7.58371 4.73634 7.70759C4.83561 7.83147 6.1225 9.70647 8.09716 10.5134C9.34506 11.0223 9.8343 11.0658 10.4582 10.9788C10.8376 10.9252 11.6211 10.5301 11.7841 10.0949C11.9472 9.6596 11.9472 9.28795 11.8976 9.21094C11.8515 9.12723 11.7203 9.08036 11.5253 8.98996Z" fill="black" fill-opacity="0.5"/>
</svg>
